<?xml version="1.0" encoding="utf-8"?>
<!-- Generator: Adobe Illustrator 16.0.0, SVG Export Plug-In . SVG Version: 6.00 Build 0)  -->
<!DOCTYPE svg PUBLIC "-//W3C//DTD SVG 1.1//EN" "http://www.w3.org/Graphics/SVG/1.1/DTD/svg11.dtd" [
	<!ENTITY ns_extend "http://ns.adobe.com/Extensibility/1.0/">
	<!ENTITY ns_ai "http://ns.adobe.com/AdobeIllustrator/10.0/">
	<!ENTITY ns_graphs "http://ns.adobe.com/Graphs/1.0/">
	<!ENTITY ns_vars "http://ns.adobe.com/Variables/1.0/">
	<!ENTITY ns_imrep "http://ns.adobe.com/ImageReplacement/1.0/">
	<!ENTITY ns_sfw "http://ns.adobe.com/SaveForWeb/1.0/">
	<!ENTITY ns_custom "http://ns.adobe.com/GenericCustomNamespace/1.0/">
	<!ENTITY ns_adobe_xpath "http://ns.adobe.com/XPath/1.0/">
]>
<svg version="1.1" id="Light" xmlns:x="&ns_extend;" xmlns:i="&ns_ai;" xmlns:graph="&ns_graphs;"
	 xmlns="http://www.w3.org/2000/svg" xmlns:xlink="http://www.w3.org/1999/xlink" x="0px" y="0px" width="64px" height="64px"
	 viewBox="0 0 64 64" enable-background="new 0 0 64 64" xml:space="preserve">
<metadata>
	<sfw  xmlns="&ns_sfw;">
		<slices></slices>
		<sliceSourceBounds  height="61.479" width="62.784" y="-62.835" x="0.608" bottomLeftOrigin="true"></sliceSourceBounds>
	</sfw>
</metadata>
<g id="Calque_1" display="none">
	<g display="inline">
		<g>
			<path fill="#FFFFFF" d="M61.866,33.842c-0.21,0-0.415-0.081-0.572-0.241L31.999,4.311L2.705,33.601
				c-0.316,0.319-0.827,0.319-1.146,0c-0.315-0.314-0.315-0.826,0-1.145L31.425,2.59c0.306-0.305,0.844-0.305,1.148,0l29.864,29.866
				c0.318,0.318,0.318,0.83,0,1.145C62.28,33.761,62.074,33.842,61.866,33.842z"/>
			<path fill="#FFFFFF" d="M61.866,34.557c-0.408,0-0.792-0.158-1.083-0.452L31.999,5.322L3.211,34.106
				c-0.574,0.576-1.579,0.581-2.157,0c-0.593-0.593-0.594-1.559-0.003-2.154L30.92,2.084c0.559-0.559,1.603-0.559,2.159,0
				L62.944,31.95c0.29,0.29,0.447,0.674,0.447,1.079c0,0.407-0.158,0.791-0.448,1.078C62.658,34.398,62.273,34.557,61.866,34.557z
				 M31.999,3.299l29.867,29.827c0.016,0,0.042-0.004,0.064-0.028L32.068,3.095L2.065,32.961l0.134,0.134L31.999,3.299z"/>
		</g>
		<g>
			<path fill="#FFFFFF" d="M53.845,61.621H39.434c-0.449,0-0.811-0.364-0.811-0.814V40.132H25.377v20.675
				c0,0.45-0.362,0.814-0.811,0.814H10.156c-0.448,0-0.811-0.364-0.811-0.814V25.706c0-0.45,0.363-0.813,0.811-0.813
				c0.449,0,0.811,0.363,0.811,0.813v34.292h12.789V39.32c0-0.447,0.363-0.812,0.812-0.812h14.867c0.447,0,0.811,0.364,0.811,0.812
				v20.677h12.789V25.706c0-0.45,0.362-0.813,0.812-0.813c0.448,0,0.811,0.363,0.811,0.813v35.101
				C54.655,61.257,54.293,61.621,53.845,61.621z"/>
			<path fill="#FFFFFF" d="M53.845,62.335H39.434c-0.843,0-1.526-0.684-1.526-1.528V40.845H26.092v19.962
				c0,0.845-0.685,1.528-1.525,1.528H10.156c-0.842,0-1.526-0.684-1.526-1.528V25.706c0-0.844,0.684-1.529,1.526-1.529
				c0.841,0,1.526,0.685,1.526,1.529v33.576H23.04V39.32c0-0.841,0.685-1.525,1.527-1.525h14.867c0.841,0,1.526,0.685,1.526,1.525
				v19.961h11.358V25.706c0-0.844,0.683-1.529,1.526-1.529c0.839,0,1.527,0.685,1.527,1.529v35.101
				C55.372,61.651,54.684,62.335,53.845,62.335z M24.662,39.415h14.675v21.392l14.508,0.099c0.054,0,0.095-0.043,0.095-0.099V25.706
				h-0.192v35.007H39.528V39.32l-14.961-0.095l-0.096,21.487H10.251V25.706h-0.191v35.101l14.506,0.099L24.662,39.415z"/>
		</g>
	</g>
</g>
<g id="Calque_2">
	<g>
		<path fill="#FFFFFF" stroke="#FFFFFF" stroke-miterlimit="10" d="M31.612,31.535c-8.838,0-16.029-6.656-16.029-14.841
			c0-8.183,7.191-14.838,16.029-14.838c8.841,0,16.031,6.656,16.031,14.838C47.644,24.878,40.453,31.535,31.612,31.535z
			 M31.612,3.531c-7.839,0-14.218,5.906-14.218,13.163c0,7.261,6.379,13.167,14.218,13.167c7.842,0,14.219-5.906,14.219-13.167
			C45.831,9.437,39.454,3.531,31.612,3.531z"/>
		<path fill="#FFFFFF" stroke="#FFFFFF" stroke-miterlimit="10" d="M51.676,62.335H12.323c-0.499,0-0.904-0.372-0.904-0.838V48.912
			C11.419,38.408,20.65,29.86,32,29.86s20.581,8.548,20.581,19.052v12.585C52.581,61.963,52.175,62.335,51.676,62.335z
			 M13.229,60.66h37.543V48.912c0-9.577-8.421-17.377-18.771-17.377c-10.353,0-18.771,7.8-18.771,17.377V60.66z"/>
	</g>
</g>
<g id="Calque_3" display="none">
	<g display="inline">
		<path fill="#FFFFFF" stroke="#FFFFFF" stroke-width="0.25" stroke-miterlimit="10" d="M35.211,62.131h-6.426
			c-1.241,0-2.256-1.015-2.256-2.256v-2.742c0-1.307-0.841-2.473-2.091-2.898c-0.977-0.335-1.94-0.737-2.868-1.198
			c-1.143-0.57-2.515-0.354-3.411,0.54l-2.001,2c-0.853,0.854-2.34,0.854-3.189,0L8.42,51.034c-0.878-0.881-0.878-2.313,0-3.192
			l2.027-2.027c0.893-0.893,1.11-2.259,0.548-3.398c-0.458-0.928-0.858-1.894-1.186-2.871c-0.421-1.241-1.573-2.073-2.868-2.073
			H4.126c-1.245,0-2.257-1.013-2.257-2.261v-6.427c0-1.243,1.012-2.255,2.257-2.255h2.868c1.29,0,2.442-0.827,2.866-2.06
			c0.328-0.957,0.725-1.908,1.18-2.819c0.572-1.147,0.354-2.52-0.54-3.415L8.42,16.158c-0.426-0.427-0.658-0.992-0.658-1.595
			c0-0.604,0.232-1.172,0.658-1.598l4.548-4.545c0.849-0.85,2.337-0.853,3.189,0l2.103,2.105c0.891,0.891,2.259,1.11,3.402,0.546
			c0.916-0.453,1.865-0.845,2.824-1.173c1.221-0.411,2.042-1.548,2.042-2.827V4.129c0-1.247,1.015-2.26,2.256-2.26h6.426
			c1.247,0,2.26,1.013,2.26,2.26v2.943c0,1.279,0.821,2.416,2.044,2.827c0.958,0.328,1.909,0.72,2.819,1.173
			c1.146,0.564,2.513,0.345,3.404-0.546l2.1-2.105c0.883-0.876,2.314-0.879,3.196,0l4.542,4.548
			c0.429,0.423,0.661,0.991,0.661,1.595c0,0.603-0.232,1.168-0.661,1.595l-2.077,2.077c-0.896,0.896-1.113,2.268-0.539,3.415
			c0.452,0.911,0.85,1.859,1.181,2.819c0.426,1.232,1.574,2.06,2.862,2.06h2.871c1.241,0,2.257,1.012,2.257,2.255v6.427
			c0,1.248-1.016,2.261-2.257,2.261h-2.818c-1.294,0-2.448,0.832-2.865,2.073c-0.331,0.978-0.729,1.943-1.189,2.871
			c-0.563,1.14-0.342,2.506,0.549,3.398l2.026,2.027c0.882,0.88,0.882,2.312,0,3.192l-4.542,4.542c-0.882,0.882-2.313,0.882-3.196,0
			l-1.998-2c-0.896-0.894-2.264-1.11-3.41-0.54c-0.925,0.461-1.893,0.863-2.868,1.198c-1.253,0.426-2.091,1.592-2.091,2.898v2.742
			C37.471,61.116,36.458,62.131,35.211,62.131z M20.235,51.034c0.708,0,1.421,0.163,2.085,0.493c0.861,0.43,1.755,0.804,2.663,1.113
			c1.931,0.662,3.228,2.467,3.228,4.492v2.742c0,0.315,0.261,0.573,0.574,0.573h6.426c0.32,0,0.574-0.258,0.574-0.573v-2.742
			c0-2.025,1.3-3.83,3.231-4.492c0.905-0.31,1.802-0.684,2.662-1.113c1.792-0.896,3.944-0.55,5.351,0.858l2.001,2.002
			c0.224,0.223,0.589,0.223,0.813,0l4.544-4.545c0.11-0.106,0.169-0.252,0.169-0.405c0-0.154-0.059-0.299-0.169-0.406l-2.027-2.027
			c-1.4-1.401-1.749-3.546-0.866-5.337c0.426-0.857,0.794-1.754,1.103-2.661c0.649-1.924,2.441-3.22,4.46-3.22h2.818
			c0.315,0,0.574-0.255,0.574-0.575v-6.427c0-0.313-0.259-0.572-0.574-0.572h-2.871c-2.007,0-3.795-1.283-4.455-3.193
			c-0.307-0.891-0.673-1.772-1.096-2.619c-0.893-1.795-0.551-3.947,0.859-5.354l2.075-2.077c0.11-0.109,0.169-0.252,0.169-0.405
			s-0.059-0.3-0.169-0.406l-4.544-4.544c-0.224-0.224-0.589-0.224-0.813,0l-2.102,2.102c-1.401,1.404-3.545,1.752-5.337,0.865
			c-0.85-0.418-1.728-0.783-2.618-1.085c-1.905-0.647-3.188-2.425-3.188-4.423V4.129c0-0.319-0.254-0.574-0.574-0.574h-6.426
			c-0.313,0-0.574,0.255-0.574,0.574v2.943c0,1.998-1.28,3.775-3.185,4.423c-0.887,0.302-1.769,0.667-2.616,1.085
			c-1.792,0.884-3.938,0.539-5.339-0.865l-2.103-2.102c-0.217-0.218-0.597-0.218-0.812,0l-4.544,4.544
			c-0.107,0.106-0.168,0.253-0.168,0.406s0.062,0.296,0.168,0.405l2.076,2.077c1.407,1.406,1.752,3.559,0.855,5.354
			c-0.42,0.847-0.789,1.729-1.096,2.616c-0.656,1.913-2.447,3.196-4.455,3.196H4.126c-0.317,0-0.572,0.26-0.572,0.572v6.427
			c0,0.32,0.255,0.575,0.572,0.575h2.816c2.018,0,3.811,1.296,4.46,3.22c0.308,0.907,0.679,1.804,1.103,2.661
			c0.884,1.791,0.537,3.936-0.865,5.337l-2.027,2.027c-0.107,0.107-0.168,0.252-0.168,0.406c0,0.153,0.062,0.299,0.168,0.405
			l4.544,4.545c0.215,0.215,0.595,0.217,0.812,0l2.001-2.002C17.855,51.499,19.035,51.034,20.235,51.034z"/>
		<path fill="#FFFFFF" stroke="#FFFFFF" stroke-width="0.25" stroke-miterlimit="10" d="M31.999,48.819
			c-9.271,0-16.818-7.546-16.818-16.821c0-9.271,7.546-16.817,16.818-16.817c9.274,0,16.821,7.546,16.821,16.817
			C48.819,41.273,41.272,48.819,31.999,48.819z M31.999,16.866c-8.347,0-15.133,6.79-15.133,15.132
			c0,8.347,6.786,15.136,15.133,15.136c8.345,0,15.138-6.789,15.138-15.136C47.137,23.656,40.344,16.866,31.999,16.866z"/>
	</g>
</g>
<g id="Calque_4" display="none">
	<g display="inline">
		<path fill="#FFFFFF" stroke="#FFFFFF" stroke-width="0.25" stroke-miterlimit="10" d="M62.345,51.148H1.656
			c-0.471,0-0.854-0.406-0.854-0.905V2.583c0-0.503,0.384-0.909,0.854-0.909h60.688c0.474,0,0.854,0.406,0.854,0.909v47.66
			C63.198,50.742,62.818,51.148,62.345,51.148z M2.513,49.334h58.977V3.489H2.513V49.334z"/>
		<path fill="#FFFFFF" stroke="#FFFFFF" stroke-width="0.25" stroke-miterlimit="10" d="M24.183,61.494
			c-0.471,0-0.854-0.406-0.854-0.903V50.243c0-0.504,0.383-0.909,0.854-0.909c0.475,0,0.855,0.405,0.855,0.909v10.348
			C25.038,61.088,24.657,61.494,24.183,61.494z"/>
		<path fill="#FFFFFF" stroke="#FFFFFF" stroke-width="0.25" stroke-miterlimit="10" d="M39.855,61.494
			c-0.474,0-0.857-0.406-0.857-0.903V50.243c0-0.504,0.384-0.909,0.857-0.909c0.472,0,0.854,0.405,0.854,0.909v10.348
			C40.71,61.088,40.327,61.494,39.855,61.494z"/>
		<path fill="#FFFFFF" stroke="#FFFFFF" stroke-width="0.25" stroke-miterlimit="10" d="M61.437,42.842H1.656
			c-0.471,0-0.854-0.405-0.854-0.906c0-0.502,0.384-0.909,0.854-0.909h59.78c0.475,0,0.854,0.407,0.854,0.909
			C62.291,42.437,61.911,42.842,61.437,42.842z"/>
		<path fill="#FFFFFF" stroke="#FFFFFF" stroke-width="0.25" stroke-miterlimit="10" d="M47.263,62.326H16.634
			c-0.471,0-0.854-0.405-0.854-0.906c0-0.5,0.383-0.906,0.854-0.906h30.629c0.472,0,0.855,0.406,0.855,0.906
			C48.118,61.921,47.734,62.326,47.263,62.326z"/>
	</g>
</g>
<g id="Calque_5" display="none">
	<g display="inline">
		<path fill="#FFFFFF" stroke="#FFFFFF" stroke-width="0.25" stroke-miterlimit="10" d="M61.805,1.723L11.889,1.875
			c-0.519,0-0.938,0.423-0.937,0.941c0.003,0.518,0.424,0.938,0.941,0.935L60.866,3.6l-0.149,56.8H3.129V12.206h49.445V52.89
			c0,0.516,0.42,0.938,0.941,0.938c0.519,0,0.938-0.423,0.938-0.938V12.173c0-1.02-0.829-1.844-1.848-1.844H2.936
			c-0.931,0-1.685,0.75-1.685,1.682v48.401c0,1.028,0.836,1.865,1.868,1.865h57.607c1.029,0,1.864-0.831,1.867-1.859l0.155-57.757
			C62.749,2.14,62.325,1.719,61.805,1.723z"/>
		<path fill="#FFFFFF" stroke="#FFFFFF" stroke-width="0.25" stroke-miterlimit="10" d="M29.418,35.149V19.932
			c0-0.774-0.625-1.398-1.396-1.398H9.975v0.007c-0.756,0.022-1.358,0.646-1.352,1.407L8.75,35.163
			c0.007,0.766,0.628,1.384,1.396,1.384h17.875C28.793,36.547,29.418,35.92,29.418,35.149z M27.539,34.669H10.64V20.413h16.899
			V34.669z"/>
		<path fill="#FFFFFF" stroke="#FFFFFF" stroke-width="0.25" stroke-miterlimit="10" d="M47.646,18.66H33.447
			c-0.521,0-0.939,0.42-0.939,0.938c0,0.521,0.419,0.942,0.939,0.942h14.198c0.52,0,0.94-0.421,0.94-0.942
			C48.586,19.08,48.165,18.66,47.646,18.66z"/>
		<path fill="#FFFFFF" stroke="#FFFFFF" stroke-width="0.25" stroke-miterlimit="10" d="M12.088,45.888h36.144
			c0.521,0,0.941-0.421,0.941-0.938c0-0.521-0.42-0.942-0.941-0.942H12.088c-0.519,0-0.94,0.421-0.94,0.942
			C11.147,45.467,11.569,45.888,12.088,45.888z"/>
		<path fill="#FFFFFF" stroke="#FFFFFF" stroke-width="0.25" stroke-miterlimit="10" d="M12.204,54.338h36.618
			c0.516,0,0.938-0.421,0.938-0.941c0-0.519-0.423-0.938-0.938-0.938H12.204c-0.518,0-0.938,0.419-0.938,0.938
			C11.266,53.917,11.687,54.338,12.204,54.338z"/>
		<path fill="#FFFFFF" stroke="#FFFFFF" stroke-width="0.25" stroke-miterlimit="10" d="M33.563,27.343
			c-0.518,0-0.938,0.42-0.938,0.941c0,0.519,0.421,0.939,0.938,0.939h14.2c0.519,0,0.939-0.42,0.939-0.939
			c0-0.521-0.421-0.941-0.939-0.941H33.563z"/>
		<path fill="#FFFFFF" stroke="#FFFFFF" stroke-width="0.25" stroke-miterlimit="10" d="M33.212,37.554h14.2
			c0.52,0,0.938-0.421,0.938-0.938s-0.419-0.938-0.938-0.938h-14.2c-0.52,0-0.939,0.421-0.939,0.938S32.692,37.554,33.212,37.554z"
			/>
	</g>
</g>
</svg>
