<?xml version="1.0" encoding="utf-8"?>
<!-- Generator: Adobe Illustrator 16.0.0, SVG Export Plug-In . SVG Version: 6.00 Build 0)  -->
<!DOCTYPE svg PUBLIC "-//W3C//DTD SVG 1.1//EN" "http://www.w3.org/Graphics/SVG/1.1/DTD/svg11.dtd" [
	<!ENTITY ns_extend "http://ns.adobe.com/Extensibility/1.0/">
	<!ENTITY ns_ai "http://ns.adobe.com/AdobeIllustrator/10.0/">
	<!ENTITY ns_graphs "http://ns.adobe.com/Graphs/1.0/">
	<!ENTITY ns_vars "http://ns.adobe.com/Variables/1.0/">
	<!ENTITY ns_imrep "http://ns.adobe.com/ImageReplacement/1.0/">
	<!ENTITY ns_sfw "http://ns.adobe.com/SaveForWeb/1.0/">
	<!ENTITY ns_custom "http://ns.adobe.com/GenericCustomNamespace/1.0/">
	<!ENTITY ns_adobe_xpath "http://ns.adobe.com/XPath/1.0/">
]>
<svg version="1.1" xmlns:x="&ns_extend;" xmlns:i="&ns_ai;" xmlns:graph="&ns_graphs;"
	 xmlns="http://www.w3.org/2000/svg" xmlns:xlink="http://www.w3.org/1999/xlink" x="0px" y="0px" width="64px" height="64px"
	 viewBox="0 0 64 64" enable-background="new 0 0 64 64" xml:space="preserve">
<metadata>
	<sfw  xmlns="&ns_sfw;">
		<slices></slices>
		<sliceSourceBounds  height="62.051" width="63.695" x="0.229" y="-63.025" bottomLeftOrigin="true"></sliceSourceBounds>
	</sfw>
</metadata>
<g id="header_x5F_light" display="none">
	<g id="Calque_1">
		<g display="inline">
			<g>
				<path fill="#FFFFFF" d="M61.866,33.842c-0.21,0-0.415-0.081-0.572-0.241L31.999,4.311L2.705,33.601
					c-0.316,0.319-0.827,0.319-1.146,0c-0.315-0.314-0.315-0.826,0-1.145L31.425,2.59c0.306-0.305,0.844-0.305,1.148,0
					l29.864,29.866c0.318,0.318,0.318,0.83,0,1.145C62.28,33.761,62.074,33.842,61.866,33.842z"/>
				<path fill="#FFFFFF" d="M61.866,34.557c-0.408,0-0.792-0.158-1.083-0.452L31.999,5.322L3.211,34.106
					c-0.574,0.576-1.579,0.581-2.157,0c-0.593-0.593-0.594-1.559-0.003-2.154L30.92,2.084c0.559-0.559,1.603-0.559,2.159,0
					L62.944,31.95c0.29,0.29,0.447,0.674,0.447,1.079c0,0.407-0.158,0.791-0.448,1.078C62.658,34.398,62.273,34.557,61.866,34.557z
					 M31.999,3.299l29.867,29.827c0.016,0,0.042-0.004,0.064-0.028L32.068,3.095L2.065,32.961l0.134,0.134L31.999,3.299z"/>
			</g>
			<g>
				<path fill="#FFFFFF" d="M53.845,61.621H39.434c-0.449,0-0.811-0.364-0.811-0.814V40.132H25.377v20.675
					c0,0.45-0.362,0.814-0.811,0.814H10.156c-0.448,0-0.811-0.364-0.811-0.814V25.706c0-0.45,0.363-0.813,0.811-0.813
					c0.449,0,0.811,0.363,0.811,0.813v34.292h12.789V39.32c0-0.447,0.363-0.812,0.812-0.812h14.867c0.447,0,0.811,0.364,0.811,0.812
					v20.677h12.789V25.706c0-0.45,0.362-0.813,0.812-0.813c0.448,0,0.811,0.363,0.811,0.813v35.101
					C54.655,61.257,54.293,61.621,53.845,61.621z"/>
				<path fill="#FFFFFF" d="M53.845,62.335H39.434c-0.843,0-1.526-0.684-1.526-1.528V40.845H26.092v19.962
					c0,0.845-0.685,1.528-1.525,1.528H10.156c-0.842,0-1.526-0.684-1.526-1.528V25.706c0-0.844,0.684-1.529,1.526-1.529
					c0.841,0,1.526,0.685,1.526,1.529v33.576H23.04V39.32c0-0.841,0.685-1.525,1.527-1.525h14.867c0.841,0,1.526,0.685,1.526,1.525
					v19.961h11.358V25.706c0-0.844,0.683-1.529,1.526-1.529c0.839,0,1.527,0.685,1.527,1.529v35.101
					C55.372,61.651,54.684,62.335,53.845,62.335z M24.662,39.415h14.675v21.392l14.508,0.099c0.054,0,0.095-0.043,0.095-0.099
					V25.706h-0.192v35.007H39.528V39.32l-14.961-0.095l-0.096,21.487H10.251V25.706h-0.191v35.101l14.506,0.099L24.662,39.415z"/>
			</g>
		</g>
	</g>
	<g id="Calque_2">
		<g display="inline">
			<path fill="#FFFFFF" stroke="#FFFFFF" stroke-miterlimit="10" d="M31.612,31.535c-8.838,0-16.029-6.656-16.029-14.841
				c0-8.183,7.191-14.838,16.029-14.838c8.841,0,16.031,6.656,16.031,14.838C47.644,24.878,40.453,31.535,31.612,31.535z
				 M31.612,3.531c-7.839,0-14.218,5.906-14.218,13.163c0,7.261,6.379,13.167,14.218,13.167c7.842,0,14.219-5.906,14.219-13.167
				C45.831,9.437,39.454,3.531,31.612,3.531z"/>
			<path fill="#FFFFFF" stroke="#FFFFFF" stroke-miterlimit="10" d="M51.676,62.335H12.323c-0.499,0-0.904-0.372-0.904-0.838V48.912
				C11.419,38.408,20.65,29.86,32,29.86s20.581,8.548,20.581,19.052v12.585C52.581,61.963,52.175,62.335,51.676,62.335z
				 M13.229,60.66h37.543V48.912c0-9.577-8.421-17.377-18.771-17.377c-10.353,0-18.771,7.8-18.771,17.377V60.66z"/>
		</g>
	</g>
	<g id="Calque_3">
		<g display="inline">
			<path fill="#FFFFFF" stroke="#FFFFFF" stroke-miterlimit="10" d="M35.211,62.131h-6.426c-1.241,0-2.256-1.015-2.256-2.256v-2.742
				c0-1.307-0.841-2.473-2.091-2.898c-0.977-0.335-1.94-0.737-2.868-1.198c-1.143-0.57-2.515-0.354-3.411,0.54l-2.001,2
				c-0.853,0.854-2.34,0.854-3.189,0L8.42,51.034c-0.878-0.881-0.878-2.313,0-3.192l2.027-2.027c0.893-0.893,1.11-2.259,0.548-3.398
				c-0.458-0.928-0.858-1.894-1.186-2.871c-0.421-1.241-1.573-2.073-2.868-2.073H4.126c-1.245,0-2.257-1.013-2.257-2.261v-6.427
				c0-1.243,1.012-2.255,2.257-2.255h2.868c1.29,0,2.442-0.827,2.866-2.06c0.328-0.957,0.725-1.908,1.18-2.819
				c0.572-1.147,0.354-2.52-0.54-3.415L8.42,16.158c-0.426-0.427-0.658-0.992-0.658-1.595c0-0.604,0.232-1.172,0.658-1.598
				l4.548-4.545c0.849-0.85,2.337-0.853,3.189,0l2.103,2.105c0.891,0.891,2.259,1.11,3.402,0.546
				c0.916-0.453,1.865-0.845,2.824-1.173c1.221-0.411,2.042-1.548,2.042-2.827V4.129c0-1.247,1.015-2.26,2.256-2.26h6.426
				c1.247,0,2.26,1.013,2.26,2.26v2.943c0,1.279,0.821,2.416,2.044,2.827c0.958,0.328,1.909,0.72,2.819,1.173
				c1.146,0.564,2.513,0.345,3.404-0.546l2.1-2.105c0.883-0.876,2.314-0.879,3.196,0l4.542,4.548
				c0.429,0.423,0.661,0.991,0.661,1.595c0,0.603-0.232,1.168-0.661,1.595l-2.077,2.077c-0.896,0.896-1.113,2.268-0.539,3.415
				c0.452,0.911,0.85,1.859,1.181,2.819c0.426,1.232,1.574,2.06,2.862,2.06h2.871c1.241,0,2.257,1.012,2.257,2.255v6.427
				c0,1.248-1.016,2.261-2.257,2.261h-2.818c-1.294,0-2.448,0.832-2.865,2.073c-0.331,0.978-0.729,1.943-1.189,2.871
				c-0.563,1.14-0.342,2.506,0.549,3.398l2.026,2.027c0.882,0.88,0.882,2.312,0,3.192l-4.542,4.542
				c-0.882,0.882-2.313,0.882-3.196,0l-1.998-2c-0.896-0.894-2.264-1.11-3.41-0.54c-0.925,0.461-1.893,0.863-2.868,1.198
				c-1.253,0.426-2.091,1.592-2.091,2.898v2.742C37.471,61.116,36.458,62.131,35.211,62.131z M20.235,51.034
				c0.708,0,1.421,0.163,2.085,0.493c0.861,0.43,1.755,0.804,2.663,1.113c1.931,0.662,3.228,2.467,3.228,4.492v2.742
				c0,0.315,0.261,0.573,0.574,0.573h6.426c0.32,0,0.574-0.258,0.574-0.573v-2.742c0-2.025,1.3-3.83,3.231-4.492
				c0.905-0.31,1.802-0.684,2.662-1.113c1.792-0.896,3.944-0.55,5.351,0.858l2.001,2.002c0.224,0.223,0.589,0.223,0.813,0
				l4.544-4.545c0.11-0.106,0.169-0.252,0.169-0.405c0-0.154-0.059-0.299-0.169-0.406l-2.027-2.027
				c-1.4-1.401-1.749-3.546-0.866-5.337c0.426-0.857,0.794-1.754,1.103-2.661c0.649-1.924,2.441-3.22,4.46-3.22h2.818
				c0.315,0,0.574-0.255,0.574-0.575v-6.427c0-0.313-0.259-0.572-0.574-0.572h-2.871c-2.007,0-3.795-1.283-4.455-3.193
				c-0.307-0.891-0.673-1.772-1.096-2.619c-0.893-1.795-0.551-3.947,0.859-5.354l2.075-2.077c0.11-0.109,0.169-0.252,0.169-0.405
				s-0.059-0.3-0.169-0.406l-4.544-4.544c-0.224-0.224-0.589-0.224-0.813,0l-2.102,2.102c-1.401,1.404-3.545,1.752-5.337,0.865
				c-0.85-0.418-1.728-0.783-2.618-1.085c-1.905-0.647-3.188-2.425-3.188-4.423V4.129c0-0.319-0.254-0.574-0.574-0.574h-6.426
				c-0.313,0-0.574,0.255-0.574,0.574v2.943c0,1.998-1.28,3.775-3.185,4.423c-0.887,0.302-1.769,0.667-2.616,1.085
				c-1.792,0.884-3.938,0.539-5.339-0.865l-2.103-2.102c-0.217-0.218-0.597-0.218-0.812,0l-4.544,4.544
				c-0.107,0.106-0.168,0.253-0.168,0.406s0.062,0.296,0.168,0.405l2.076,2.077c1.407,1.406,1.752,3.559,0.855,5.354
				c-0.42,0.847-0.789,1.729-1.096,2.616c-0.656,1.913-2.447,3.196-4.455,3.196H4.126c-0.317,0-0.572,0.26-0.572,0.572v6.427
				c0,0.32,0.255,0.575,0.572,0.575h2.816c2.018,0,3.811,1.296,4.46,3.22c0.308,0.907,0.679,1.804,1.103,2.661
				c0.884,1.791,0.537,3.936-0.865,5.337l-2.027,2.027c-0.107,0.107-0.168,0.252-0.168,0.406c0,0.153,0.062,0.299,0.168,0.405
				l4.544,4.545c0.215,0.215,0.595,0.217,0.812,0l2.001-2.002C17.855,51.499,19.035,51.034,20.235,51.034z"/>
			<path fill="#FFFFFF" stroke="#FFFFFF" stroke-miterlimit="10" d="M31.999,48.819c-9.271,0-16.818-7.546-16.818-16.821
				c0-9.271,7.546-16.817,16.818-16.817c9.274,0,16.821,7.546,16.821,16.817C48.819,41.273,41.272,48.819,31.999,48.819z
				 M31.999,16.866c-8.347,0-15.133,6.79-15.133,15.132c0,8.347,6.786,15.136,15.133,15.136c8.345,0,15.138-6.789,15.138-15.136
				C47.137,23.656,40.344,16.866,31.999,16.866z"/>
		</g>
	</g>
	<g id="Calque_4">
		<g display="inline">
			<path fill="#FFFFFF" stroke="#FFFFFF" stroke-miterlimit="10" d="M62.345,51.148H1.656c-0.471,0-0.854-0.406-0.854-0.905V2.583
				c0-0.503,0.384-0.909,0.854-0.909h60.688c0.474,0,0.854,0.406,0.854,0.909v47.66C63.198,50.742,62.818,51.148,62.345,51.148z
				 M2.513,49.334h58.977V3.489H2.513V49.334z"/>
			<path fill="#FFFFFF" stroke="#FFFFFF" stroke-miterlimit="10" d="M24.183,61.494c-0.471,0-0.854-0.406-0.854-0.903V50.243
				c0-0.504,0.383-0.909,0.854-0.909c0.475,0,0.855,0.405,0.855,0.909v10.348C25.038,61.088,24.657,61.494,24.183,61.494z"/>
			<path fill="#FFFFFF" stroke="#FFFFFF" stroke-miterlimit="10" d="M39.855,61.494c-0.474,0-0.857-0.406-0.857-0.903V50.243
				c0-0.504,0.384-0.909,0.857-0.909c0.472,0,0.854,0.405,0.854,0.909v10.348C40.71,61.088,40.327,61.494,39.855,61.494z"/>
			<path fill="#FFFFFF" stroke="#FFFFFF" stroke-miterlimit="10" d="M61.437,42.842H1.656c-0.471,0-0.854-0.405-0.854-0.906
				c0-0.502,0.384-0.909,0.854-0.909h59.78c0.475,0,0.854,0.407,0.854,0.909C62.291,42.437,61.911,42.842,61.437,42.842z"/>
			<path fill="#FFFFFF" stroke="#FFFFFF" stroke-miterlimit="10" d="M47.263,62.326H16.634c-0.471,0-0.854-0.405-0.854-0.906
				c0-0.5,0.383-0.906,0.854-0.906h30.629c0.472,0,0.855,0.406,0.855,0.906C48.118,61.921,47.734,62.326,47.263,62.326z"/>
		</g>
	</g>
	<g id="Calque_5" display="inline">
		<g>
			<path fill="#FFFFFF" stroke="#FFFFFF" stroke-miterlimit="10" d="M61.805,1.723L11.889,1.875c-0.519,0-0.938,0.423-0.937,0.941
				c0.003,0.518,0.424,0.938,0.941,0.935L60.866,3.6l-0.149,56.8H3.129V12.206h49.445V52.89c0,0.516,0.42,0.938,0.941,0.938
				c0.519,0,0.938-0.423,0.938-0.938V12.173c0-1.02-0.829-1.844-1.848-1.844H2.936c-0.931,0-1.685,0.75-1.685,1.682v48.401
				c0,1.028,0.836,1.865,1.868,1.865h57.607c1.029,0,1.864-0.831,1.867-1.859l0.155-57.757C62.749,2.14,62.325,1.719,61.805,1.723z"
				/>
			<path fill="#FFFFFF" stroke="#FFFFFF" stroke-miterlimit="10" d="M29.418,35.149V19.932c0-0.774-0.625-1.398-1.396-1.398H9.975
				v0.007c-0.756,0.022-1.358,0.646-1.352,1.407L8.75,35.163c0.007,0.766,0.628,1.384,1.396,1.384h17.875
				C28.793,36.547,29.418,35.92,29.418,35.149z M27.539,34.669H10.64V20.413h16.899V34.669z"/>
			<path fill="#FFFFFF" stroke="#FFFFFF" stroke-miterlimit="10" d="M47.646,18.66H33.447c-0.521,0-0.939,0.42-0.939,0.938
				c0,0.521,0.419,0.942,0.939,0.942h14.198c0.52,0,0.94-0.421,0.94-0.942C48.586,19.08,48.165,18.66,47.646,18.66z"/>
			<path fill="#FFFFFF" stroke="#FFFFFF" stroke-miterlimit="10" d="M12.088,45.888h36.144c0.521,0,0.941-0.421,0.941-0.938
				c0-0.521-0.42-0.942-0.941-0.942H12.088c-0.519,0-0.94,0.421-0.94,0.942C11.147,45.467,11.569,45.888,12.088,45.888z"/>
			<path fill="#FFFFFF" stroke="#FFFFFF" stroke-miterlimit="10" d="M12.204,54.338h36.618c0.516,0,0.938-0.421,0.938-0.941
				c0-0.519-0.423-0.938-0.938-0.938H12.204c-0.518,0-0.938,0.419-0.938,0.938C11.266,53.917,11.687,54.338,12.204,54.338z"/>
			<path fill="#FFFFFF" stroke="#FFFFFF" stroke-miterlimit="10" d="M33.563,27.343c-0.518,0-0.938,0.42-0.938,0.941
				c0,0.519,0.421,0.939,0.938,0.939h14.2c0.519,0,0.939-0.42,0.939-0.939c0-0.521-0.421-0.941-0.939-0.941H33.563z"/>
			<path fill="#FFFFFF" stroke="#FFFFFF" stroke-miterlimit="10" d="M33.212,37.554h14.2c0.52,0,0.938-0.421,0.938-0.938
				s-0.419-0.938-0.938-0.938h-14.2c-0.52,0-0.939,0.421-0.939,0.938S32.692,37.554,33.212,37.554z"/>
		</g>
	</g>
</g>
<g id="Calque_7" display="none">
	<g display="inline">
		<path fill="#FFFFFF" stroke="#FFFFFF" stroke-miterlimit="10" d="M61.945,61.148L29.257,28.075l0,0l0,0L3.203,1.714
			c-0.231-0.232-0.58-0.303-0.884-0.178C2.015,1.66,1.82,1.957,1.82,2.283v59.434c0,0.447,0.36,0.809,0.808,0.809h58.743
			c0.33,0,0.622-0.197,0.747-0.5C62.244,61.726,62.176,61.379,61.945,61.148z M3.437,60.906V4.253l9.176,9.285l-2.431,2.431
			c-0.314,0.317-0.314,0.83,0,1.144c0.159,0.158,0.365,0.237,0.575,0.237c0.206,0,0.413-0.079,0.571-0.237l2.422-2.425l6.157,6.227
			l-2.483,2.483c-0.318,0.315-0.318,0.828,0,1.144c0.156,0.157,0.365,0.236,0.571,0.236c0.208,0,0.415-0.079,0.571-0.236
			l2.475-2.476l6.506,6.579l-2.186,2.187c-0.318,0.315-0.318,0.828,0,1.143c0.157,0.159,0.365,0.237,0.571,0.237
			c0.21,0,0.416-0.078,0.571-0.237l2.18-2.179l5.697,5.764l-2.264,2.263c-0.317,0.316-0.317,0.828,0,1.145
			c0.156,0.157,0.365,0.236,0.572,0.236c0.206,0,0.415-0.079,0.571-0.236l2.257-2.257l6.235,6.308l-2.221,2.22
			c-0.318,0.315-0.318,0.826,0,1.145c0.156,0.156,0.364,0.236,0.573,0.236c0.206,0,0.412-0.08,0.569-0.236l2.213-2.215l6.234,6.307
			l-2.177,2.179c-0.314,0.315-0.314,0.827,0,1.144c0.159,0.158,0.368,0.237,0.575,0.237c0.206,0,0.412-0.079,0.567-0.237
			l2.172-2.171l9.175,9.281H3.437z"/>
		<path fill="#FFFFFF" stroke="#FFFFFF" stroke-miterlimit="10" d="M11.33,25.634c-0.231-0.232-0.58-0.303-0.881-0.178
			c-0.307,0.126-0.502,0.419-0.502,0.747v25.877c0,0.446,0.362,0.808,0.809,0.808h25.575c0.326,0,0.621-0.194,0.747-0.496
			c0.126-0.301,0.059-0.648-0.173-0.881L11.33,25.634z M11.564,51.271V28.172l22.833,23.098H11.564z"/>
		<path fill="#FFFFFF" stroke="#FFFFFF" stroke-miterlimit="10" d="M30.221,10.999c0.02,0.05,0.053,0.092,0.081,0.136
			c0.028,0.04,0.039,0.082,0.072,0.117c0.005,0.006,0.012,0.009,0.017,0.014c0,0,0.011,0.014,0.017,0.021l22.32,21.795
			c0.155,0.154,0.359,0.232,0.563,0.232c0.206,0,0.416-0.08,0.575-0.238l2.542-2.543l3.247,3.338
			c0.158,0.164,0.37,0.248,0.579,0.248c0.203,0,0.406-0.078,0.565-0.23c0.318-0.311,0.327-0.822,0.015-1.143l-3.264-3.36
			l3.256-3.252c0.316-0.318,0.316-0.828,0-1.145L39.093,3.275c-0.034-0.034-0.084-0.052-0.123-0.082
			c-0.042-0.029-0.078-0.064-0.125-0.085c-0.042-0.017-0.093-0.021-0.137-0.032c-0.056-0.014-0.111-0.031-0.167-0.033l-0.02-0.004
			h-7.551c-0.446,0-0.808,0.362-0.808,0.809v6.861c0,0.04,0.017,0.075,0.022,0.114C30.196,10.882,30.201,10.942,30.221,10.999z
			 M56.424,28.227l-9.906-10.196c-0.313-0.319-0.825-0.326-1.146-0.015c-0.321,0.31-0.326,0.824-0.017,1.144l9.926,10.212
			l-1.996,1.995L32.153,10.73l6.343-5.765l20.592,20.596L56.424,28.227z M36.428,4.656l-4.649,4.225V4.656H36.428z"/>
	</g>
</g>
<g id="Calque_8" display="none">
	<g display="inline">
		<path fill="#FFFFFF" stroke="#FFFFFF" stroke-miterlimit="10" d="M61.252,5.036H18.236c-1.018,0-1.845,0.824-1.845,1.842v6.658
			c0,0.47,0.381,0.852,0.854,0.852c0.469,0,0.85-0.382,0.85-0.852V6.737h43.475v25.931H28.438c-0.469,0-0.854,0.382-0.854,0.852
			c0,0.469,0.385,0.849,0.854,0.849h33.131v4.13h-33.69c-0.471,0-0.852,0.383-0.852,0.855c0,0.468,0.38,0.85,0.852,0.85h5.285v6.146
			h-3.92c-0.472,0-0.851,0.379-0.851,0.85c0,0.469,0.378,0.851,0.851,0.851h21.098c0.471,0,0.854-0.382,0.854-0.851
			c0-0.471-0.383-0.85-0.854-0.85H46.53v-6.146h14.975c0.978,0,1.767-0.792,1.767-1.77V7.055
			C63.271,5.939,62.368,5.036,61.252,5.036z M44.827,46.35h-9.961v-6.146h9.961V46.35z"/>
		<path fill="#FFFFFF" stroke="#FFFFFF" stroke-miterlimit="10" d="M22.75,18.522H2.436c-0.942,0-1.707,0.764-1.707,1.708v37.027
			c0,0.941,0.765,1.706,1.707,1.706H22.75c0.943,0,1.708-0.765,1.708-1.706V20.23C24.459,19.286,23.694,18.522,22.75,18.522z
			 M22.757,57.264H2.43v-5.043h20.327V57.264z M22.757,50.519H2.43V20.225h20.327V50.519z"/>
		<path fill="#FFFFFF" stroke="#FFFFFF" stroke-miterlimit="10" d="M11.158,55.583h2.872c0.47,0,0.851-0.382,0.851-0.851
			c0-0.474-0.381-0.854-0.851-0.854h-2.872c-0.472,0-0.854,0.381-0.854,0.854C10.304,55.201,10.686,55.583,11.158,55.583z"/>
	</g>
</g>
<g id="Calque_9" display="none">
	<g display="inline">
		<path fill="#FFFFFF" stroke="#FFFFFF" stroke-width="0.75" stroke-miterlimit="10" d="M61.702,1.84h-59.4
			c-0.459,0-0.832,0.372-0.832,0.834v58.654c0,0.458,0.373,0.832,0.832,0.832h59.4c0.458,0,0.828-0.374,0.828-0.832V2.674
			C62.53,2.212,62.16,1.84,61.702,1.84z M60.867,3.506v10.465H3.136V3.506H60.867z M3.136,60.497V15.634h57.731v44.863H3.136z"/>
		<path fill="#FFFFFF" stroke="#FFFFFF" stroke-width="0.75" stroke-miterlimit="10" d="M8.116,11.554
			c1.508,0,2.735-1.227,2.735-2.738c0-1.508-1.228-2.735-2.735-2.735c-1.51,0-2.738,1.228-2.738,2.735
			C5.378,10.327,6.606,11.554,8.116,11.554z M8.116,7.746c0.591,0,1.069,0.479,1.069,1.069c0,0.594-0.479,1.072-1.069,1.072
			c-0.594,0-1.072-0.479-1.072-1.072C7.044,8.225,7.522,7.746,8.116,7.746z"/>
		<path fill="#FFFFFF" stroke="#FFFFFF" stroke-width="0.75" stroke-miterlimit="10" d="M15.031,11.554
			c1.509,0,2.735-1.227,2.735-2.738c0-1.508-1.227-2.735-2.735-2.735c-1.508,0-2.734,1.228-2.734,2.735
			C12.297,10.327,13.523,11.554,15.031,11.554z M15.031,7.746c0.592,0,1.073,0.479,1.073,1.069c0,0.594-0.481,1.072-1.073,1.072
			c-0.591,0-1.071-0.479-1.071-1.072C13.96,8.225,14.44,7.746,15.031,7.746z"/>
		<path fill="#FFFFFF" stroke="#FFFFFF" stroke-width="0.75" stroke-miterlimit="10" d="M21.949,11.554
			c1.507,0,2.733-1.227,2.733-2.738c0-1.508-1.227-2.735-2.733-2.735c-1.51,0-2.737,1.228-2.737,2.735
			C19.212,10.327,20.439,11.554,21.949,11.554z M21.949,7.746c0.591,0,1.071,0.479,1.071,1.069c0,0.594-0.48,1.072-1.071,1.072
			c-0.592,0-1.072-0.479-1.072-1.072C20.877,8.225,21.357,7.746,21.949,7.746z"/>
		<path fill="#FFFFFF" stroke="#FFFFFF" stroke-width="0.75" stroke-miterlimit="10" d="M22.629,27.8
			c-0.383-0.252-0.899-0.144-1.151,0.24l-5.293,8.076c-0.183,0.275-0.183,0.635,0,0.912l5.293,8.074
			c0.159,0.244,0.424,0.376,0.695,0.376c0.156,0,0.315-0.043,0.456-0.136c0.384-0.249,0.491-0.768,0.239-1.152l-4.993-7.618
			l4.993-7.62C23.12,28.567,23.013,28.051,22.629,27.8z"/>
		<path fill="#FFFFFF" stroke="#FFFFFF" stroke-width="0.75" stroke-miterlimit="10" d="M42.662,28.04
			c-0.251-0.384-0.766-0.492-1.151-0.24c-0.384,0.251-0.49,0.768-0.239,1.152l4.993,7.62l-4.993,7.618
			c-0.251,0.385-0.145,0.903,0.239,1.152c0.141,0.093,0.298,0.136,0.456,0.136c0.272,0,0.537-0.132,0.695-0.376l5.292-8.074
			c0.183-0.277,0.183-0.637,0-0.912L42.662,28.04z"/>
		<path fill="#FFFFFF" stroke="#FFFFFF" stroke-width="0.75" stroke-miterlimit="10" d="M37.617,21.01
			c-0.431-0.155-0.909,0.063-1.068,0.493L26.028,50.034c-0.158,0.43,0.063,0.909,0.492,1.066c0.097,0.037,0.192,0.051,0.29,0.051
			c0.338,0,0.656-0.205,0.779-0.544L38.11,22.079C38.27,21.649,38.049,21.17,37.617,21.01z"/>
	</g>
</g>
<g id="Calque_10" display="none">
	<g display="inline">
		<path fill="#FFFFFF" stroke="#FFFFFF" stroke-width="0.5" stroke-miterlimit="10" d="M61.152,62.114h-25.86
			c-0.461,0-0.835-0.375-0.835-0.834V25.435c0-0.463,0.374-0.835,0.835-0.835h25.86c0.459,0,0.834,0.372,0.834,0.835V61.28
			C61.986,61.739,61.611,62.114,61.152,62.114z M36.129,60.445h24.188V26.269H36.129V60.445z"/>
		<path fill="#FFFFFF" stroke="#FFFFFF" stroke-width="0.5" stroke-miterlimit="10" d="M61.152,20.53h-25.86
			c-0.461,0-0.835-0.373-0.835-0.837V2.721c0-0.46,0.374-0.835,0.835-0.835h25.86c0.459,0,0.834,0.375,0.834,0.835v16.973
			C61.986,20.157,61.611,20.53,61.152,20.53z M36.129,18.859h24.188V3.557H36.129V18.859z"/>
		<path fill="#FFFFFF" stroke="#FFFFFF" stroke-width="0.5" stroke-miterlimit="10" d="M28.705,39.402H2.849
			c-0.464,0-0.835-0.37-0.835-0.833V2.721c0-0.46,0.371-0.835,0.835-0.835h25.856c0.463,0,0.838,0.375,0.838,0.835v35.849
			C29.543,39.032,29.168,39.402,28.705,39.402z M3.685,37.734h24.187V3.557H3.685V37.734z"/>
		<path fill="#FFFFFF" stroke="#FFFFFF" stroke-width="0.5" stroke-miterlimit="10" d="M28.705,62.114H2.849
			c-0.464,0-0.835-0.375-0.835-0.834V44.307c0-0.461,0.371-0.834,0.835-0.834h25.856c0.463,0,0.838,0.373,0.838,0.834V61.28
			C29.543,61.739,29.168,62.114,28.705,62.114z M3.685,60.445h24.187V45.141H3.685V60.445z"/>
	</g>
	<g display="inline">
		<path fill="#FFFFFF" stroke="#FFFFFF" stroke-width="0.5" stroke-miterlimit="10" d="M58.179,52.48H38.265
			c-0.156,0-0.283-0.127-0.283-0.284V32.283c0-0.156,0.127-0.283,0.283-0.283h19.914c0.156,0,0.283,0.127,0.283,0.283v19.913
			C58.462,52.354,58.335,52.48,58.179,52.48z M38.548,51.913h19.348V32.566H38.548V51.913z"/>
		<path fill="#FFFFFF" stroke="#FFFFFF" stroke-width="0.5" stroke-miterlimit="10" d="M42.592,38.994
			c-1.045,0-1.896-0.851-1.896-1.896s0.851-1.895,1.896-1.895s1.896,0.85,1.896,1.895S43.637,38.994,42.592,38.994z M42.592,35.771
			c-0.732,0-1.329,0.596-1.329,1.328s0.597,1.328,1.329,1.328s1.329-0.596,1.329-1.328S43.324,35.771,42.592,35.771z"/>
		<path fill="#FFFFFF" stroke="#FFFFFF" stroke-width="0.5" stroke-miterlimit="10" d="M38.265,46.527
			c-0.086,0-0.172-0.039-0.228-0.114c-0.093-0.126-0.067-0.303,0.059-0.396l7.298-5.427c0.1-0.075,0.239-0.074,0.34,0.002
			l4.899,3.727l7.052-7.415c0.107-0.113,0.287-0.118,0.4-0.01c0.113,0.107,0.118,0.287,0.01,0.4l-7.227,7.6
			c-0.1,0.104-0.262,0.117-0.376,0.03l-4.932-3.752l-7.126,5.3C38.384,46.51,38.323,46.527,38.265,46.527z"/>
	</g>
	<g display="inline">
		<path fill="#FFFFFF" stroke="#FFFFFF" stroke-width="0.5" stroke-miterlimit="10" d="M26.092,31.673V8.666
			c0-0.18-0.127-0.326-0.283-0.326H5.578c-0.156,0-0.283,0.146-0.283,0.326v23.007C5.295,31.854,5.422,32,5.578,32h20.23
			C25.965,32,26.092,31.854,26.092,31.673z M25.525,31.347H5.862V8.992h19.663V31.347z"/>
		<path fill="#FFFFFF" stroke="#FFFFFF" stroke-width="0.5" stroke-miterlimit="10" d="M8.281,14.418h14.765
			c0.156,0,0.284-0.146,0.284-0.326c0-0.181-0.127-0.326-0.284-0.326H8.281c-0.157,0-0.284,0.145-0.284,0.326
			C7.998,14.272,8.124,14.418,8.281,14.418z"/>
		<path fill="#FFFFFF" stroke="#FFFFFF" stroke-width="0.5" stroke-miterlimit="10" d="M23.016,16.703H8.34
			c-0.156,0-0.283,0.146-0.283,0.326c0,0.181,0.127,0.327,0.283,0.327h14.676c0.157,0,0.283-0.146,0.283-0.327
			C23.299,16.849,23.172,16.703,23.016,16.703z"/>
		<path fill="#FFFFFF" stroke="#FFFFFF" stroke-width="0.5" stroke-miterlimit="10" d="M23.011,19.64H8.316
			c-0.156,0-0.283,0.146-0.283,0.326c0,0.181,0.127,0.326,0.283,0.326h14.695c0.157,0,0.284-0.145,0.284-0.326
			C23.295,19.787,23.168,19.64,23.011,19.64z"/>
		<path fill="#FFFFFF" stroke="#FFFFFF" stroke-width="0.5" stroke-miterlimit="10" d="M7.992,26.167h15.211
			c0.156,0,0.284-0.146,0.284-0.326c0-0.18-0.127-0.326-0.284-0.326H7.992c-0.156,0-0.283,0.146-0.283,0.326
			C7.709,26.021,7.836,26.167,7.992,26.167z"/>
		<path fill="#FFFFFF" stroke="#FFFFFF" stroke-width="0.5" stroke-miterlimit="10" d="M8.274,23.23h14.931
			c0.157,0,0.284-0.146,0.284-0.326c0-0.18-0.126-0.326-0.284-0.326H8.274c-0.157,0-0.283,0.146-0.283,0.326
			C7.991,23.084,8.117,23.23,8.274,23.23z"/>
	</g>
</g>
<g id="Calque_11">
	<g>
		<path fill="#FFFFFF" stroke="#FFFFFF" stroke-width="0.75" stroke-miterlimit="10" d="M33.85,42.073H5.196
			c-1.615-2.01-2.793-6.788-2.793-9.97c0-6.004,4.748-10.888,10.589-10.888c0.524,0,1.086,0.049,1.709,0.154
			c0.472,0.078,0.917-0.236,1.005-0.707C16.997,13.62,23,8.509,29.981,8.509c5.454,0,10.404,3.107,12.915,8.103
			c0.184,0.368,0.601,0.559,0.997,0.456c1.188-0.305,2.359-0.456,3.494-0.456c7.947,0,14.409,6.644,14.409,14.81
			c0,3.243-0.938,8.232-2.317,10.652h-1.78c-0.482,0-0.875,0.391-0.875,0.878c0,0.481,0.393,0.874,0.875,0.874h2.27
			c0.289,0,0.561-0.145,0.724-0.386c1.863-2.767,2.856-8.757,2.856-12.019c0-9.132-7.248-16.562-16.161-16.562
			c-1.063,0-2.154,0.121-3.252,0.352c-2.896-5.23-8.261-8.453-14.154-8.453c-7.548,0-14.076,5.322-15.826,12.767
			c-0.404-0.042-0.79-0.063-1.164-0.063c-6.806,0-12.339,5.671-12.339,12.641c0,3.254,1.219,9.046,3.512,11.45
			c0.166,0.174,0.395,0.272,0.633,0.272H33.85c0.481,0,0.874-0.393,0.874-0.874C34.724,42.464,34.331,42.073,33.85,42.073z"/>
		<path fill="#FFFFFF" stroke="#FFFFFF" stroke-width="0.75" stroke-miterlimit="10" d="M53.5,48.522
			c1.155-1.563,1.846-3.484,1.846-5.571c0-5.192-4.224-9.416-9.411-9.416c-5.192,0-9.413,4.224-9.413,9.416
			c0,5.188,4.221,9.411,9.413,9.411c2.469,0,4.717-0.965,6.4-2.53l8.688,8.694c0.172,0.17,0.397,0.257,0.621,0.257
			c0.225,0,0.447-0.087,0.619-0.257c0.341-0.344,0.341-0.896,0-1.237L53.5,48.522z M45.935,50.61c-4.224,0-7.664-3.437-7.664-7.659
			c0-4.228,3.44-7.662,7.664-7.662c4.223,0,7.661,3.435,7.661,7.662C53.596,47.174,50.157,50.61,45.935,50.61z"/>
	</g>
</g>
</svg>
