<?xml version="1.0" encoding="utf-8"?>
<!-- Generator: Adobe Illustrator 16.0.0, SVG Export Plug-In . SVG Version: 6.00 Build 0)  -->
<!DOCTYPE svg PUBLIC "-//W3C//DTD SVG 1.1//EN" "http://www.w3.org/Graphics/SVG/1.1/DTD/svg11.dtd" [
	<!ENTITY ns_extend "http://ns.adobe.com/Extensibility/1.0/">
	<!ENTITY ns_ai "http://ns.adobe.com/AdobeIllustrator/10.0/">
	<!ENTITY ns_graphs "http://ns.adobe.com/Graphs/1.0/">
	<!ENTITY ns_vars "http://ns.adobe.com/Variables/1.0/">
	<!ENTITY ns_imrep "http://ns.adobe.com/ImageReplacement/1.0/">
	<!ENTITY ns_sfw "http://ns.adobe.com/SaveForWeb/1.0/">
	<!ENTITY ns_custom "http://ns.adobe.com/GenericCustomNamespace/1.0/">
	<!ENTITY ns_adobe_xpath "http://ns.adobe.com/XPath/1.0/">
]>
<svg version="1.1" xmlns:x="&ns_extend;" xmlns:i="&ns_ai;" xmlns:graph="&ns_graphs;"
	 xmlns="http://www.w3.org/2000/svg" xmlns:xlink="http://www.w3.org/1999/xlink" x="0px" y="0px" width="64px" height="64px"
	 viewBox="0 0 64 64" enable-background="new 0 0 64 64" xml:space="preserve">
<metadata>
	<sfw  xmlns="&ns_sfw;">
		<slices></slices>
		<sliceSourceBounds  width="64" height="63.407" y="0.593" x="0" bottomLeftOrigin="true"></sliceSourceBounds>
	</sfw>
</metadata>
<g id="Calque_1" display="none">
	
		<image display="inline" overflow="visible" width="216" height="214" xlink:href="../../téléchargement.jpg"  transform="matrix(0.2963 0 0 0.2963 0 0)">
	</image>
</g>
<g id="Calque_2">
	<polygon fill="#007BCE" points="3,2.75 57.5,2.75 57.5,47.75 48,47.75 48,58 13.5,58 3.25,47.75 	"/>
</g>
<g id="Calque_3">
	<rect x="51" y="51.5" fill="#3D3D3D" width="10" height="9.75"/>
</g>
<g id="Calque_4">
	<rect x="34.75" y="17.75" fill="#FFFFFF" width="4.125" height="19.625"/>
	<rect x="38.875" y="37.375" fill="#FFFFFF" width="13.5" height="4.75"/>
	<rect x="12.313" y="17.75" fill="#FFFFFF" width="4.125" height="24.375"/>
	<polygon fill="#FFFFFF" points="26.5,42.625 31.813,42.625 23.188,29.217 19.125,31.704 	"/>
	<rect x="25.813" y="17.75" fill="#FFFFFF" width="4.125" height="10.438"/>
	<rect x="19.125" y="17.75" fill="#FFFFFF" width="10.813" height="4.75"/>
	<rect x="19.125" y="27.563" fill="#FFFFFF" width="10.813" height="4.75"/>
</g>
</svg>
