<?xml version="1.0" encoding="utf-8"?>
<!-- Generator: Adobe Illustrator 16.0.0, SVG Export Plug-In . SVG Version: 6.00 Build 0)  -->
<!DOCTYPE svg PUBLIC "-//W3C//DTD SVG 1.1//EN" "http://www.w3.org/Graphics/SVG/1.1/DTD/svg11.dtd" [
	<!ENTITY ns_extend "http://ns.adobe.com/Extensibility/1.0/">
	<!ENTITY ns_ai "http://ns.adobe.com/AdobeIllustrator/10.0/">
	<!ENTITY ns_graphs "http://ns.adobe.com/Graphs/1.0/">
	<!ENTITY ns_vars "http://ns.adobe.com/Variables/1.0/">
	<!ENTITY ns_imrep "http://ns.adobe.com/ImageReplacement/1.0/">
	<!ENTITY ns_sfw "http://ns.adobe.com/SaveForWeb/1.0/">
	<!ENTITY ns_custom "http://ns.adobe.com/GenericCustomNamespace/1.0/">
	<!ENTITY ns_adobe_xpath "http://ns.adobe.com/XPath/1.0/">
]>
<svg version="1.1" id="Calque_1" xmlns:x="&ns_extend;" xmlns:i="&ns_ai;" xmlns:graph="&ns_graphs;"
	 xmlns="http://www.w3.org/2000/svg" xmlns:xlink="http://www.w3.org/1999/xlink" x="0px" y="0px" width="64px" height="64px"
	 viewBox="0 0 64 64" enable-background="new 0 0 64 64" xml:space="preserve">
<metadata>
	<sfw  xmlns="&ns_sfw;">
		<slices></slices>
		<sliceSourceBounds  height="62.05" width="63.396" y="1.475" x="-0.198" bottomLeftOrigin="true"></sliceSourceBounds>
	</sfw>
</metadata>
<g id="header_x5F_light" display="none">
	<g id="Calque_1_1_" display="inline">
		<g>
			<g>
				<path fill="#FFFFFF" d="M61.866,33.842c-0.21,0-0.415-0.081-0.572-0.24L31.999,4.311L2.705,33.602
					c-0.316,0.318-0.827,0.318-1.146,0c-0.315-0.314-0.315-0.826,0-1.146L31.425,2.59c0.306-0.305,0.844-0.305,1.148,0
					l29.864,29.866c0.317,0.317,0.317,0.83,0,1.146C62.279,33.761,62.074,33.842,61.866,33.842z"/>
				<path fill="#FFFFFF" d="M61.866,34.557c-0.408,0-0.792-0.158-1.083-0.451L31.999,5.322L3.211,34.105
					c-0.574,0.576-1.579,0.582-2.157,0c-0.593-0.592-0.594-1.559-0.003-2.153L30.92,2.084c0.559-0.559,1.604-0.559,2.159,0
					L62.943,31.95c0.291,0.29,0.447,0.674,0.447,1.079c0,0.406-0.158,0.791-0.447,1.078C62.658,34.398,62.273,34.557,61.866,34.557z
					 M31.999,3.299l29.867,29.827c0.016,0,0.042-0.004,0.063-0.028L32.068,3.095L2.065,32.961l0.134,0.135L31.999,3.299z"/>
			</g>
			<g>
				<path fill="#FFFFFF" d="M53.846,61.621H39.434c-0.449,0-0.811-0.364-0.811-0.814V40.132H25.377v20.675
					c0,0.45-0.362,0.814-0.811,0.814h-14.41c-0.448,0-0.811-0.364-0.811-0.814V25.706c0-0.45,0.363-0.813,0.811-0.813
					c0.449,0,0.811,0.363,0.811,0.813v34.292h12.789V39.32c0-0.447,0.363-0.813,0.812-0.813h14.868c0.446,0,0.811,0.364,0.811,0.813
					v20.677h12.789V25.706c0-0.45,0.361-0.813,0.813-0.813c0.447,0,0.811,0.363,0.811,0.813v35.101
					C54.654,61.257,54.293,61.621,53.846,61.621z"/>
				<path fill="#FFFFFF" d="M53.846,62.335H39.434c-0.843,0-1.525-0.685-1.525-1.528V40.846H26.092v19.961
					c0,0.846-0.685,1.528-1.525,1.528H10.156c-0.842,0-1.526-0.685-1.526-1.528V25.706c0-0.844,0.684-1.529,1.526-1.529
					c0.841,0,1.526,0.685,1.526,1.529v33.576H23.04V39.32c0-0.842,0.685-1.525,1.527-1.525h14.867c0.842,0,1.526,0.686,1.526,1.525
					v19.961h11.358V25.706c0-0.844,0.683-1.529,1.525-1.529c0.84,0,1.527,0.685,1.527,1.529v35.101
					C55.372,61.65,54.684,62.335,53.846,62.335z M24.662,39.415h14.675v21.392l14.509,0.1c0.053,0,0.094-0.043,0.094-0.1V25.706
					h-0.191v35.007H39.527V39.32l-14.96-0.096l-0.096,21.487h-14.22V25.706H10.06v35.101l14.506,0.1L24.662,39.415z"/>
			</g>
		</g>
	</g>
	<g id="Calque_2" display="inline">
		<g>
			<path fill="#FFFFFF" stroke="#FFFFFF" stroke-miterlimit="10" d="M31.612,31.535c-8.838,0-16.029-6.656-16.029-14.841
				c0-8.183,7.191-14.838,16.029-14.838c8.841,0,16.031,6.656,16.031,14.838C47.645,24.878,40.453,31.535,31.612,31.535z
				 M31.612,3.531c-7.839,0-14.218,5.906-14.218,13.163c0,7.261,6.379,13.167,14.218,13.167c7.842,0,14.219-5.906,14.219-13.167
				C45.831,9.437,39.454,3.531,31.612,3.531z"/>
			<path fill="#FFFFFF" stroke="#FFFFFF" stroke-miterlimit="10" d="M51.676,62.335H12.323c-0.499,0-0.904-0.372-0.904-0.838V48.912
				C11.419,38.408,20.65,29.86,32,29.86c11.35,0,20.581,8.548,20.581,19.052v12.585C52.581,61.963,52.175,62.335,51.676,62.335z
				 M13.229,60.66h37.542V48.912c0-9.577-8.42-17.377-18.771-17.377c-10.353,0-18.771,7.8-18.771,17.377L13.229,60.66L13.229,60.66z
				"/>
		</g>
	</g>
	<g id="Calque_3" display="inline">
		<g>
			<path fill="#FFFFFF" stroke="#FFFFFF" stroke-miterlimit="10" d="M35.211,62.131h-6.426c-1.241,0-2.256-1.015-2.256-2.256v-2.742
				c0-1.307-0.841-2.473-2.091-2.898c-0.977-0.334-1.94-0.736-2.868-1.197c-1.143-0.57-2.515-0.354-3.411,0.54l-2.001,2
				c-0.853,0.854-2.34,0.854-3.189,0L8.42,51.034c-0.878-0.882-0.878-2.313,0-3.192l2.027-2.027c0.893-0.893,1.11-2.258,0.548-3.397
				c-0.458-0.928-0.858-1.894-1.186-2.871c-0.421-1.241-1.573-2.073-2.868-2.073H4.126c-1.245,0-2.257-1.013-2.257-2.261v-6.427
				c0-1.243,1.012-2.255,2.257-2.255h2.868c1.29,0,2.442-0.827,2.866-2.06c0.328-0.957,0.725-1.908,1.18-2.819
				c0.572-1.147,0.354-2.52-0.54-3.415l-2.08-2.078c-0.426-0.427-0.658-0.992-0.658-1.595c0-0.604,0.232-1.172,0.658-1.598
				l4.548-4.545c0.849-0.85,2.337-0.853,3.189,0l2.103,2.105c0.891,0.891,2.259,1.11,3.402,0.546
				c0.916-0.453,1.865-0.845,2.824-1.173c1.221-0.411,2.042-1.548,2.042-2.827V4.129c0-1.247,1.015-2.26,2.256-2.26h6.426
				c1.247,0,2.261,1.013,2.261,2.26v2.943c0,1.279,0.82,2.416,2.043,2.827c0.959,0.328,1.909,0.72,2.819,1.173
				c1.146,0.564,2.513,0.345,3.403-0.546l2.101-2.105c0.884-0.876,2.313-0.879,3.196,0l4.542,4.548
				c0.429,0.423,0.661,0.991,0.661,1.595c0,0.603-0.232,1.168-0.661,1.595l-2.077,2.077c-0.896,0.896-1.113,2.268-0.539,3.415
				c0.452,0.911,0.85,1.859,1.182,2.819c0.426,1.232,1.573,2.06,2.861,2.06h2.871c1.24,0,2.257,1.012,2.257,2.255v6.427
				c0,1.248-1.017,2.261-2.257,2.261h-2.818c-1.294,0-2.447,0.832-2.865,2.073c-0.33,0.978-0.729,1.943-1.188,2.871
				c-0.563,1.14-0.342,2.506,0.549,3.397l2.026,2.027c0.882,0.881,0.882,2.313,0,3.192l-4.542,4.542
				c-0.882,0.882-2.313,0.882-3.196,0l-1.998-2c-0.896-0.895-2.264-1.11-3.41-0.54c-0.925,0.461-1.893,0.862-2.867,1.198
				c-1.254,0.426-2.092,1.592-2.092,2.897v2.742C37.471,61.116,36.458,62.131,35.211,62.131z M20.235,51.034
				c0.708,0,1.421,0.163,2.085,0.493c0.861,0.43,1.755,0.804,2.663,1.113c1.931,0.661,3.228,2.467,3.228,4.491v2.742
				c0,0.315,0.261,0.573,0.574,0.573h6.426c0.32,0,0.574-0.258,0.574-0.573v-2.742c0-2.024,1.3-3.83,3.23-4.491
				c0.905-0.311,1.803-0.685,2.662-1.113c1.793-0.896,3.944-0.551,5.352,0.857l2,2.002c0.225,0.223,0.59,0.223,0.813,0l4.544-4.545
				c0.11-0.105,0.17-0.252,0.17-0.404c0-0.154-0.06-0.299-0.17-0.406l-2.027-2.027c-1.399-1.4-1.748-3.546-0.865-5.337
				c0.426-0.856,0.794-1.754,1.104-2.661c0.648-1.924,2.44-3.22,4.459-3.22h2.818c0.314,0,0.574-0.255,0.574-0.575v-6.427
				c0-0.313-0.26-0.572-0.574-0.572h-2.871c-2.007,0-3.795-1.283-4.455-3.193c-0.307-0.891-0.673-1.772-1.096-2.619
				c-0.893-1.795-0.551-3.947,0.859-5.354l2.074-2.077c0.11-0.109,0.17-0.252,0.17-0.405s-0.06-0.3-0.17-0.406l-4.544-4.544
				c-0.224-0.224-0.589-0.224-0.813,0l-2.102,2.102c-1.4,1.404-3.545,1.752-5.337,0.865c-0.85-0.418-1.728-0.783-2.618-1.085
				c-1.904-0.647-3.188-2.425-3.188-4.423V4.129c0-0.319-0.254-0.574-0.574-0.574h-6.426c-0.313,0-0.574,0.255-0.574,0.574v2.943
				c0,1.998-1.28,3.775-3.185,4.423c-0.887,0.302-1.769,0.667-2.616,1.085c-1.792,0.884-3.938,0.539-5.339-0.865l-2.103-2.102
				c-0.217-0.218-0.597-0.218-0.812,0l-4.544,4.544c-0.107,0.106-0.168,0.253-0.168,0.406s0.062,0.296,0.168,0.405l2.076,2.077
				c1.407,1.406,1.752,3.559,0.855,5.354c-0.42,0.847-0.789,1.729-1.096,2.616C10.791,26.928,9,28.211,6.992,28.211H4.126
				c-0.317,0-0.572,0.26-0.572,0.572v6.427c0,0.319,0.255,0.575,0.572,0.575h2.816c2.018,0,3.811,1.296,4.46,3.22
				c0.308,0.907,0.679,1.804,1.103,2.661c0.884,1.791,0.537,3.936-0.865,5.337l-2.027,2.026c-0.107,0.107-0.168,0.253-0.168,0.406
				s0.062,0.299,0.168,0.405l4.544,4.545c0.215,0.216,0.595,0.218,0.812,0l2.001-2.002C17.855,51.499,19.035,51.034,20.235,51.034z"
				/>
			<path fill="#FFFFFF" stroke="#FFFFFF" stroke-miterlimit="10" d="M31.999,48.818c-9.271,0-16.818-7.545-16.818-16.82
				c0-9.271,7.546-16.817,16.818-16.817c9.274,0,16.821,7.546,16.821,16.817C48.818,41.273,41.271,48.818,31.999,48.818z
				 M31.999,16.866c-8.347,0-15.133,6.79-15.133,15.132c0,8.348,6.786,15.136,15.133,15.136c8.345,0,15.138-6.788,15.138-15.136
				C47.137,23.656,40.344,16.866,31.999,16.866z"/>
		</g>
	</g>
	<g id="Calque_4" display="inline">
		<g>
			<path fill="#FFFFFF" stroke="#FFFFFF" stroke-miterlimit="10" d="M62.346,51.148H1.656c-0.471,0-0.854-0.406-0.854-0.905V2.583
				c0-0.503,0.384-0.909,0.854-0.909h60.688c0.475,0,0.854,0.406,0.854,0.909v47.66C63.198,50.742,62.818,51.148,62.346,51.148z
				 M2.513,49.334H61.49V3.489H2.513V49.334z"/>
			<path fill="#FFFFFF" stroke="#FFFFFF" stroke-miterlimit="10" d="M24.183,61.494c-0.471,0-0.854-0.406-0.854-0.903V50.243
				c0-0.504,0.383-0.909,0.854-0.909c0.475,0,0.855,0.405,0.855,0.909v10.348C25.038,61.088,24.657,61.494,24.183,61.494z"/>
			<path fill="#FFFFFF" stroke="#FFFFFF" stroke-miterlimit="10" d="M39.855,61.494c-0.475,0-0.857-0.406-0.857-0.903V50.243
				c0-0.504,0.384-0.909,0.857-0.909c0.472,0,0.854,0.405,0.854,0.909v10.348C40.71,61.088,40.327,61.494,39.855,61.494z"/>
			<path fill="#FFFFFF" stroke="#FFFFFF" stroke-miterlimit="10" d="M61.438,42.842H1.656c-0.471,0-0.854-0.404-0.854-0.906
				s0.384-0.908,0.854-0.908h59.779c0.476,0,0.854,0.406,0.854,0.908C62.291,42.438,61.911,42.842,61.438,42.842z"/>
			<path fill="#FFFFFF" stroke="#FFFFFF" stroke-miterlimit="10" d="M47.264,62.326h-30.63c-0.471,0-0.854-0.405-0.854-0.906
				c0-0.5,0.383-0.906,0.854-0.906h30.63c0.471,0,0.854,0.406,0.854,0.906C48.118,61.921,47.734,62.326,47.264,62.326z"/>
		</g>
	</g>
	<g id="Calque_5" display="inline">
		<g>
			<path fill="#FFFFFF" stroke="#FFFFFF" stroke-miterlimit="10" d="M61.805,1.723L11.889,1.875c-0.519,0-0.938,0.423-0.937,0.941
				c0.003,0.518,0.424,0.938,0.941,0.935L60.866,3.6l-0.149,56.8H3.129V12.206h49.445v40.685c0,0.516,0.42,0.938,0.941,0.938
				c0.519,0,0.938-0.424,0.938-0.938V12.173c0-1.02-0.829-1.844-1.848-1.844H2.936c-0.931,0-1.685,0.75-1.685,1.682v48.401
				c0,1.027,0.836,1.865,1.868,1.865h57.607c1.028,0,1.863-0.832,1.866-1.859l0.155-57.757C62.749,2.14,62.325,1.719,61.805,1.723z"
				/>
			<path fill="#FFFFFF" stroke="#FFFFFF" stroke-miterlimit="10" d="M29.418,35.148V19.932c0-0.774-0.625-1.398-1.396-1.398H9.975
				v0.007c-0.756,0.022-1.358,0.646-1.352,1.407L8.75,35.163c0.007,0.767,0.628,1.384,1.396,1.384h17.875
				C28.793,36.547,29.418,35.92,29.418,35.148z M27.539,34.669H10.64V20.413h16.899V34.669z"/>
			<path fill="#FFFFFF" stroke="#FFFFFF" stroke-miterlimit="10" d="M47.646,18.66H33.447c-0.521,0-0.939,0.42-0.939,0.938
				c0,0.521,0.419,0.942,0.939,0.942h14.197c0.521,0,0.94-0.421,0.94-0.942C48.586,19.08,48.165,18.66,47.646,18.66z"/>
			<path fill="#FFFFFF" stroke="#FFFFFF" stroke-miterlimit="10" d="M12.088,45.889h36.145c0.521,0,0.94-0.422,0.94-0.938
				c0-0.521-0.42-0.942-0.94-0.942H12.088c-0.519,0-0.94,0.422-0.94,0.942C11.147,45.467,11.569,45.889,12.088,45.889z"/>
			<path fill="#FFFFFF" stroke="#FFFFFF" stroke-miterlimit="10" d="M12.204,54.338h36.618c0.516,0,0.938-0.421,0.938-0.941
				c0-0.519-0.423-0.938-0.938-0.938H12.204c-0.518,0-0.938,0.419-0.938,0.938C11.266,53.917,11.687,54.338,12.204,54.338z"/>
			<path fill="#FFFFFF" stroke="#FFFFFF" stroke-miterlimit="10" d="M33.563,27.343c-0.518,0-0.938,0.42-0.938,0.941
				c0,0.519,0.421,0.939,0.938,0.939h14.201c0.519,0,0.938-0.42,0.938-0.939c0-0.521-0.421-0.941-0.938-0.941H33.563z"/>
			<path fill="#FFFFFF" stroke="#FFFFFF" stroke-miterlimit="10" d="M33.212,37.555h14.2c0.52,0,0.938-0.422,0.938-0.938
				s-0.418-0.938-0.938-0.938h-14.2c-0.521,0-0.939,0.422-0.939,0.938S32.691,37.555,33.212,37.555z"/>
		</g>
	</g>
</g>
<g id="Calque_7" display="none">
	<g display="inline">
		<path fill="#FFFFFF" stroke="#FFFFFF" stroke-miterlimit="10" d="M61.945,61.148L29.257,28.075l0,0l0,0L3.203,1.714
			c-0.231-0.232-0.58-0.303-0.884-0.178C2.015,1.66,1.82,1.957,1.82,2.283v59.434c0,0.447,0.36,0.809,0.808,0.809h58.743
			c0.33,0,0.622-0.196,0.747-0.5C62.244,61.727,62.176,61.379,61.945,61.148z M3.437,60.906V4.253l9.176,9.285l-2.431,2.431
			c-0.314,0.317-0.314,0.83,0,1.144c0.159,0.158,0.365,0.237,0.575,0.237c0.206,0,0.413-0.079,0.571-0.237l2.422-2.425l6.157,6.227
			l-2.483,2.483c-0.318,0.315-0.318,0.828,0,1.144c0.156,0.157,0.365,0.236,0.571,0.236c0.208,0,0.415-0.079,0.571-0.236
			l2.475-2.476l6.506,6.579l-2.186,2.187c-0.318,0.315-0.318,0.828,0,1.143c0.157,0.159,0.365,0.237,0.571,0.237
			c0.21,0,0.416-0.078,0.571-0.237l2.18-2.179l5.697,5.765l-2.264,2.263c-0.317,0.315-0.317,0.827,0,1.145
			c0.156,0.157,0.365,0.236,0.571,0.236c0.207,0,0.416-0.079,0.571-0.236l2.257-2.257l6.235,6.309l-2.222,2.22
			c-0.317,0.315-0.317,0.825,0,1.145c0.156,0.156,0.365,0.236,0.574,0.236c0.205,0,0.412-0.08,0.568-0.236l2.213-2.215l6.234,6.308
			l-2.178,2.178c-0.313,0.316-0.313,0.828,0,1.145c0.16,0.158,0.369,0.237,0.576,0.237c0.205,0,0.412-0.079,0.566-0.237l2.172-2.171
			l9.176,9.281H3.437V60.906z"/>
		<path fill="#FFFFFF" stroke="#FFFFFF" stroke-miterlimit="10" d="M11.33,25.634c-0.231-0.232-0.58-0.303-0.881-0.178
			c-0.307,0.126-0.502,0.419-0.502,0.747V52.08c0,0.445,0.362,0.809,0.809,0.809h25.575c0.326,0,0.621-0.195,0.747-0.496
			c0.126-0.302,0.059-0.648-0.174-0.882L11.33,25.634z M11.564,51.271v-23.1L34.396,51.27H11.564V51.271z"/>
		<path fill="#FFFFFF" stroke="#FFFFFF" stroke-miterlimit="10" d="M30.221,10.999c0.02,0.05,0.053,0.092,0.081,0.136
			c0.028,0.04,0.039,0.082,0.072,0.117c0.005,0.006,0.012,0.009,0.017,0.014c0,0,0.011,0.014,0.017,0.021l22.32,21.795
			c0.154,0.154,0.358,0.232,0.563,0.232c0.206,0,0.416-0.08,0.575-0.238l2.542-2.543l3.246,3.338
			c0.158,0.164,0.371,0.248,0.58,0.248c0.203,0,0.406-0.078,0.564-0.23c0.318-0.311,0.327-0.822,0.016-1.143l-3.265-3.36
			l3.257-3.252c0.315-0.318,0.315-0.828,0-1.145L39.093,3.275c-0.034-0.034-0.084-0.052-0.122-0.082
			c-0.043-0.029-0.078-0.064-0.125-0.085c-0.043-0.017-0.094-0.021-0.138-0.032c-0.056-0.014-0.11-0.031-0.167-0.033l-0.02-0.004
			H30.97c-0.446,0-0.808,0.362-0.808,0.809v6.861c0,0.04,0.017,0.075,0.022,0.114C30.196,10.882,30.201,10.942,30.221,10.999z
			 M56.424,28.227l-9.906-10.196c-0.313-0.319-0.824-0.326-1.146-0.015c-0.321,0.31-0.326,0.824-0.017,1.144l9.926,10.212
			l-1.996,1.995L32.153,10.73l6.343-5.765l20.592,20.596L56.424,28.227z M36.428,4.656l-4.649,4.225V4.656H36.428z"/>
	</g>
</g>
<g id="bdd" display="none">
	<path display="inline" fill-rule="evenodd" clip-rule="evenodd" fill="#FFFFFF" d="M54.983,31.732
		c0,7.122-0.011,14.243,0.01,21.364c0.004,1.396-0.573,2.473-1.54,3.393c-1.546,1.475-3.461,2.294-5.439,2.958
		c-3.054,1.022-6.21,1.572-9.411,1.901c-3.72,0.384-7.447,0.422-11.171,0.176c-4.04-0.267-8.037-0.852-11.863-2.249
		c-1.21-0.441-2.391-1.009-3.513-1.646c-1.139-0.646-2.073-1.574-2.612-2.798c-0.216-0.493-0.353-1.061-0.358-1.597
		c-0.045-3.859-0.054-7.722-0.062-11.582c-0.008-4.399-0.002-8.8-0.002-13.2c0-5.992,0.024-11.985-0.015-17.976
		c-0.011-1.61,0.657-2.816,1.818-3.806c1.715-1.464,3.772-2.27,5.892-2.924c3.237-0.998,6.56-1.588,9.937-1.762
		c2.811-0.146,5.631-0.227,8.443-0.167c2.711,0.057,5.404,0.401,8.074,0.923c2.57,0.502,5.087,1.158,7.452,2.301
		c1.506,0.729,2.932,1.606,3.784,3.105c0.323,0.567,0.549,1.28,0.553,1.928C54.997,17.293,54.983,24.513,54.983,31.732z
		 M52.646,42.874c-0.938,0.495-1.813,1.024-2.744,1.429c-2.738,1.19-5.626,1.837-8.571,2.286c-2.64,0.401-5.291,0.662-7.959,0.657
		c-2.341-0.006-4.69-0.043-7.024-0.214c-1.904-0.141-3.806-0.432-5.686-0.78c-2.215-0.41-4.405-0.962-6.463-1.918
		c-0.95-0.441-1.872-0.938-2.828-1.418c-0.004,0.094-0.015,0.219-0.016,0.341c-0.027,3.174-0.034,6.349-0.092,9.522
		c-0.014,0.757,0.204,1.363,0.713,1.89c0.647,0.672,1.415,1.141,2.262,1.543c1.68,0.798,3.429,1.359,5.227,1.795
		c2.976,0.724,6,1.129,9.052,1.239c2.55,0.091,5.108,0.103,7.657-0.006c1.824-0.077,3.645-0.362,5.452-0.648
		c2.535-0.397,5.026-0.999,7.386-2.039c1.192-0.524,2.368-1.107,3.19-2.171c0.209-0.271,0.42-0.631,0.423-0.952
		C52.657,49.91,52.646,46.394,52.646,42.874z M11.356,14.154c0,1.359,0,2.761,0,4.162c0,1.891,0.075,3.785-0.029,5.67
		c-0.059,1.066,0.422,1.705,1.156,2.298c1.103,0.89,2.374,1.461,3.688,1.94c3.787,1.378,7.738,1.93,11.729,2.197
		c3.921,0.263,7.837,0.153,11.744-0.349c2.532-0.325,5.026-0.798,7.452-1.59c1.639-0.536,3.23-1.188,4.568-2.325
		c0.648-0.551,1.014-1.195,1.001-2.108c-0.042-3.162-0.016-6.324-0.017-9.487c0-0.168-0.015-0.337-0.021-0.492
		c-0.835,0.451-1.608,0.93-2.43,1.303c-2.842,1.292-5.853,2.035-8.93,2.419c-2.739,0.342-5.503,0.56-8.261,0.661
		c-3.141,0.115-6.277-0.103-9.398-0.528c-2.85-0.388-5.665-0.931-8.354-1.971C13.932,15.444,12.672,14.769,11.356,14.154z
		 M11.356,28.403c0,0.149,0,0.258,0,0.365c-0.001,3.31,0.006,6.618-0.01,9.927c-0.003,0.618,0.234,1.098,0.643,1.522
		c1.066,1.107,2.421,1.734,3.822,2.267c4.41,1.677,9.031,2.217,13.697,2.415c2.894,0.123,5.792,0.042,8.684-0.256
		c2.959-0.306,5.878-0.798,8.714-1.696c1.564-0.495,3.098-1.092,4.417-2.103c0.729-0.56,1.354-1.177,1.343-2.24
		c-0.035-3.226-0.015-6.454-0.017-9.68c0-0.153-0.017-0.305-0.029-0.511c-0.149,0.09-0.247,0.143-0.337,0.205
		c-1.475,1.013-3.115,1.67-4.805,2.199c-3.754,1.173-7.622,1.722-11.535,1.952c-4.643,0.271-9.273,0.108-13.867-0.67
		C18.324,31.462,14.649,30.583,11.356,28.403z M32.949,16.229c2.254-0.189,4.413-0.335,6.563-0.558
		c2.893-0.299,5.727-0.894,8.463-1.901c1.33-0.489,2.632-1.068,3.701-2.016c1.278-1.132,1.274-2.003,0.244-3.064
		c-0.201-0.209-0.433-0.392-0.67-0.563c-1.781-1.291-3.823-2.007-5.926-2.501c-2.015-0.474-4.062-0.87-6.117-1.098
		c-2.421-0.268-4.864-0.406-7.3-0.441c-2.927-0.042-5.847,0.171-8.749,0.616c-2.653,0.407-5.257,0.985-7.753,1.983
		c-1.255,0.501-2.456,1.112-3.415,2.109c-0.799,0.832-0.865,1.566-0.133,2.455c0.285,0.346,0.642,0.646,1.009,0.908
		c1.632,1.171,3.507,1.805,5.416,2.337c2.627,0.731,5.31,1.183,8.03,1.375C28.552,16.028,30.796,16.115,32.949,16.229z"/>
</g>
<g display="none">
	<path display="inline" fill="#FFFFFF" stroke="#FCFCFC" stroke-miterlimit="10" d="M41.28,15.363c-0.254,0-0.502-0.135-0.635-0.375
		l-4.7-8.487c-0.11-0.202-0.12-0.447-0.022-0.656c0.096-0.209,0.289-0.36,0.516-0.405l9.513-1.901
		c0.395-0.08,0.772,0.174,0.852,0.568c0.08,0.393-0.174,0.774-0.568,0.852l-8.541,1.707l4.22,7.622
		c0.192,0.35,0.066,0.792-0.284,0.986C41.52,15.333,41.4,15.363,41.28,15.363z"/>
	<path display="inline" fill="#FFFFFF" stroke="#FCFCFC" stroke-miterlimit="10" d="M18.225,60.477c-0.336,0-0.64-0.236-0.71-0.582
		c-0.077-0.392,0.178-0.773,0.569-0.854l8.542-1.706l-4.22-7.622c-0.193-0.35-0.067-0.788,0.285-0.983
		c0.347-0.194,0.789-0.066,0.983,0.281l4.699,8.488c0.112,0.205,0.121,0.446,0.023,0.656c-0.098,0.211-0.289,0.362-0.516,0.407
		l-9.513,1.899C18.321,60.472,18.272,60.477,18.225,60.477z"/>
	<path display="inline" fill="#FFFFFF" stroke="#FCFCFC" stroke-miterlimit="10" d="M27.407,58.258c-0.042,0-0.085-0.002-0.129-0.01
		c-5.213-0.931-9.99-3.374-13.812-7.065C2.883,40.966,2.586,24.045,12.801,13.463c3.922-4.061,8.927-6.731,14.477-7.724
		c0.399-0.067,0.771,0.192,0.841,0.587c0.069,0.392-0.19,0.771-0.587,0.841c-5.247,0.938-9.981,3.464-13.688,7.302
		c-9.66,10.007-9.38,26.01,0.627,35.672c3.615,3.49,8.132,5.801,13.061,6.682c0.396,0.07,0.656,0.446,0.587,0.838
		C28.056,58.013,27.75,58.258,27.407,58.258z"/>
	<path display="inline" fill="#FFFFFF" stroke="#FCFCFC" stroke-miterlimit="10" d="M36.578,58.253
		c-0.344,0-0.648-0.245-0.711-0.597c-0.071-0.394,0.19-0.768,0.585-0.841c5.25-0.938,9.984-3.464,13.69-7.302
		c4.679-4.847,7.192-11.228,7.072-17.967c-0.117-6.735-2.853-13.024-7.699-17.707c-3.616-3.489-8.134-5.8-13.063-6.681
		c-0.395-0.07-0.656-0.447-0.585-0.838c0.07-0.395,0.444-0.659,0.84-0.586c5.214,0.931,9.99,3.374,13.813,7.065
		c5.126,4.949,8.017,11.597,8.145,18.722c0.124,7.126-2.533,13.871-7.479,18.998c-3.922,4.061-8.927,6.73-14.479,7.724
		C36.663,58.251,36.621,58.253,36.578,58.253z"/>
</g>
<g>
	<path fill="#FFFFFF" stroke="#FCFCFC" stroke-miterlimit="10" d="M60.448,45.772c0.001-0.014,0.01-0.032,0.01-0.049V4.422V4.419
		c0-0.101-0.019-0.2-0.06-0.295c-0.039-0.093-0.096-0.178-0.166-0.249l0,0c-0.016-0.016-0.037-0.021-0.051-0.032
		c-0.06-0.053-0.125-0.102-0.201-0.132c-0.08-0.035-0.167-0.049-0.253-0.053c-0.017,0-0.026-0.007-0.039-0.007h-0.002l0,0h-41.61
		h-0.003c-0.101,0-0.201,0.02-0.294,0.06c-0.093,0.037-0.179,0.096-0.246,0.167h-0.004L3.768,17.736c0,0-0.019,0.031-0.028,0.044
		c-0.057,0.063-0.104,0.128-0.139,0.207c-0.028,0.074-0.04,0.156-0.048,0.236c0,0.02-0.011,0.037-0.011,0.056v41.303v0.002
		c0,0.101,0.021,0.197,0.062,0.293c0.04,0.093,0.095,0.18,0.164,0.252h0.003c0.016,0.013,0.037,0.018,0.054,0.034
		c0.061,0.051,0.122,0.1,0.193,0.128c0.095,0.04,0.196,0.058,0.297,0.058h41.612c0.099,0,0.199-0.018,0.292-0.058
		c0.096-0.037,0.18-0.096,0.252-0.168l0,0l13.762-13.857c0.014-0.015,0.018-0.03,0.032-0.045c0.053-0.061,0.103-0.129,0.134-0.206
		S60.441,45.858,60.448,45.772z M46.695,46.493h11.144L46.695,57.711V46.493z M17.305,45.405L5.084,57.711v-38.66h12.221V45.405z
		 M17.305,17.51H6.164L17.305,6.29V17.51z M18.846,19.051h26.31v25.9h-26.31V19.051z M46.695,18.597L58.919,6.29v38.661H46.695
		V18.597z M57.839,5.191L45.604,17.51H18.846V5.191H57.839z M6.164,58.812l12.233-12.318h26.758v12.318H6.164z"/>
</g>
</svg>
