<?xml version="1.0" encoding="utf-8"?>
<!-- Generator: Adobe Illustrator 16.0.0, SVG Export Plug-In . SVG Version: 6.00 Build 0)  -->
<!DOCTYPE svg PUBLIC "-//W3C//DTD SVG 1.1//EN" "http://www.w3.org/Graphics/SVG/1.1/DTD/svg11.dtd" [
	<!ENTITY ns_extend "http://ns.adobe.com/Extensibility/1.0/">
	<!ENTITY ns_ai "http://ns.adobe.com/AdobeIllustrator/10.0/">
	<!ENTITY ns_graphs "http://ns.adobe.com/Graphs/1.0/">
	<!ENTITY ns_vars "http://ns.adobe.com/Variables/1.0/">
	<!ENTITY ns_imrep "http://ns.adobe.com/ImageReplacement/1.0/">
	<!ENTITY ns_sfw "http://ns.adobe.com/SaveForWeb/1.0/">
	<!ENTITY ns_custom "http://ns.adobe.com/GenericCustomNamespace/1.0/">
	<!ENTITY ns_adobe_xpath "http://ns.adobe.com/XPath/1.0/">
]>
<svg version="1.1" id="Calque_1" xmlns:x="&ns_extend;" xmlns:i="&ns_ai;" xmlns:graph="&ns_graphs;"
	 xmlns="http://www.w3.org/2000/svg" xmlns:xlink="http://www.w3.org/1999/xlink" x="0px" y="0px" width="92.667px"
	 height="85.332px" viewBox="2.5 9.168 92.667 85.332" enable-background="new 2.5 9.168 92.667 85.332" xml:space="preserve">
<metadata>
	<sfw  xmlns="&ns_sfw;">
		<slices></slices>
		<sliceSourceBounds  height="76.333" width="88" y="-7.5" x="-13.666" bottomLeftOrigin="true"></sliceSourceBounds>
	</sfw>
</metadata>
<g>
	<path fill="#FFFFFF" d="M5.834,22.167c-0.276,0-0.5-0.224-0.5-0.5v-7c0-0.276,0.224-0.5,0.5-0.5h86c0.276,0,0.5,0.224,0.5,0.5v7
		c0,0.276-0.224,0.5-0.5,0.5H5.834z"/>
	<path fill="#FFFFFF" d="M91.834,14.667v7h-86v-7H91.834 M91.834,13.667h-86c-0.552,0-1,0.448-1,1v7c0,0.552,0.448,1,1,1h86
		c0.553,0,1-0.448,1-1v-7C92.834,14.115,92.387,13.667,91.834,13.667L91.834,13.667z"/>
</g>
<g>
	<path fill="#FFFFFF" d="M5.834,45.5c-0.276,0-0.5-0.224-0.5-0.5v-7c0-0.276,0.224-0.5,0.5-0.5h86c0.276,0,0.5,0.224,0.5,0.5v7
		c0,0.276-0.224,0.5-0.5,0.5H5.834z"/>
	<path fill="#FFFFFF" d="M91.834,38v7h-86v-7H91.834 M91.834,37h-86c-0.552,0-1,0.448-1,1v7c0,0.552,0.448,1,1,1h86
		c0.553,0,1-0.448,1-1v-7C92.834,37.448,92.387,37,91.834,37L91.834,37z"/>
</g>
<g>
	<path fill="#FFFFFF" d="M5.834,68.166c-0.276,0-0.5-0.224-0.5-0.5v-7c0-0.276,0.224-0.5,0.5-0.5h86c0.276,0,0.5,0.224,0.5,0.5v7
		c0,0.276-0.224,0.5-0.5,0.5H5.834z"/>
	<path fill="#FFFFFF" d="M91.834,60.666v7h-86v-7H91.834 M91.834,59.666h-86c-0.552,0-1,0.447-1,1v7c0,0.553,0.448,1,1,1h86
		c0.553,0,1-0.447,1-1v-7C92.834,60.113,92.387,59.666,91.834,59.666L91.834,59.666z"/>
</g>
<g>
	<path fill="#FFFFFF" d="M5.834,89.5c-0.276,0-0.5-0.224-0.5-0.5v-7c0-0.276,0.224-0.5,0.5-0.5h86c0.276,0,0.5,0.224,0.5,0.5v7
		c0,0.276-0.224,0.5-0.5,0.5H5.834z"/>
	<path fill="#FFFFFF" d="M91.834,82v7h-86v-7H91.834 M91.834,81h-86c-0.552,0-1,0.447-1,1v7c0,0.553,0.448,1,1,1h86
		c0.553,0,1-0.447,1-1v-7C92.834,81.447,92.387,81,91.834,81L91.834,81z"/>
</g>
</svg>
